<svg width="32" height="32" viewBox="0 0 32 32" fill="none" xmlns="http://www.w3.org/2000/svg">

<mask id="mask0_316_942" style="mask-type:alpha" maskUnits="userSpaceOnUse" x="0" y="4" width="32" height="32">
<path d="M18.0371 10.869H8.12824C7.51821 10.869 7.46875 10.9189 7.46875 11.5343V20.499C7.46875 21.1143 7.51821 21.1642 8.12824 21.1642H14.2945C14.9045 21.1642 14.954 21.1143 14.954 20.499V18.4033C14.954 17.7879 14.9045 17.738 14.2945 17.738H12.5303C11.3103 17.738 11.2114 17.6383 11.2114 16.4075V15.6424C11.2114 14.4116 11.3103 14.3119 12.5303 14.3119H13.635C14.8551 14.3119 14.954 14.4116 14.954 15.6424V17.0728C14.954 17.6881 15.0034 17.738 15.6135 17.738H18.0371C18.6471 17.738 18.6966 17.6881 18.6966 17.0728V11.5509C18.6966 10.9189 18.6471 10.869 18.0371 10.869ZM24.2033 4H1.97848C0.148386 4 0 4.14969 0 5.99584V26.0042C0 27.8503 0.148386 28 1.97848 28H24.2033C26.0334 28 26.1818 27.8503 26.1818 26.0042V5.99584C26.1818 4.14969 26.0334 4 24.2033 4ZM22.4392 16.3909C22.4392 17.6216 22.3403 17.7214 21.1202 17.7214H19.3561C18.7461 17.7214 18.6966 17.7713 18.6966 18.3867V20.4823C18.6966 21.0977 18.7461 21.1476 19.3561 21.1476H21.1202C22.3403 21.1476 22.4392 21.2474 22.4392 22.4782V23.2432C22.4392 24.474 22.3403 24.5738 21.1202 24.5738H20.0156C18.7955 24.5738 18.6966 24.474 18.6966 23.2432V21.8129C18.6966 21.1975 18.6471 21.1476 18.0371 21.1476H15.6135C15.0034 21.1476 14.954 21.1975 14.954 21.8129V23.2432C14.954 24.474 14.8551 24.5738 13.635 24.5738H8.78773C7.56767 24.5738 7.46875 24.474 7.46875 23.2432V21.8129C7.46875 21.1975 7.41928 21.1476 6.80926 21.1476H5.04511C3.82505 21.1476 3.72613 21.0478 3.72613 19.817V12.183C3.72613 10.9522 3.82505 10.8524 5.04511 10.8524H6.80926C7.41928 10.8524 7.46875 10.8025 7.46875 10.1871V8.75675C7.46875 7.52598 7.56767 7.42619 8.78773 7.42619H17.3776C18.5977 7.42619 18.6966 7.52598 18.6966 8.75675V10.1871C18.6966 10.8025 18.7461 10.8524 19.3561 10.8524H21.1202C22.3403 10.8524 22.4392 10.9522 22.4392 12.183V16.3909Z" fill="#B0FFDF"/>
</mask>
<g mask="url(#mask0_316_942)">
<path d="M18.0371 10.869H8.12824C7.51821 10.869 7.46875 10.9189 7.46875 11.5343V20.499C7.46875 21.1143 7.51821 21.1642 8.12824 21.1642H14.2945C14.9045 21.1642 14.954 21.1143 14.954 20.499V18.4033C14.954 17.7879 14.9045 17.738 14.2945 17.738H12.5303C11.3103 17.738 11.2114 17.6383 11.2114 16.4075V15.6424C11.2114 14.4116 11.3103 14.3119 12.5303 14.3119H13.635C14.8551 14.3119 14.954 14.4116 14.954 15.6424V17.0728C14.954 17.6881 15.0034 17.738 15.6135 17.738H18.0371C18.6471 17.738 18.6966 17.6881 18.6966 17.0728V11.5509C18.6966 10.9189 18.6471 10.869 18.0371 10.869ZM24.2033 4H1.97848C0.148386 4 0 4.14969 0 5.99584V26.0042C0 27.8503 0.148386 28 1.97848 28H24.2033C26.0334 28 26.1818 27.8503 26.1818 26.0042V5.99584C26.1818 4.14969 26.0334 4 24.2033 4ZM22.4392 16.3909C22.4392 17.6216 22.3403 17.7214 21.1202 17.7214H19.3561C18.7461 17.7214 18.6966 17.7713 18.6966 18.3867V20.4823C18.6966 21.0977 18.7461 21.1476 19.3561 21.1476H21.1202C22.3403 21.1476 22.4392 21.2474 22.4392 22.4782V23.2432C22.4392 24.474 22.3403 24.5738 21.1202 24.5738H20.0156C18.7955 24.5738 18.6966 24.474 18.6966 23.2432V21.8129C18.6966 21.1975 18.6471 21.1476 18.0371 21.1476H15.6135C15.0034 21.1476 14.954 21.1975 14.954 21.8129V23.2432C14.954 24.474 14.8551 24.5738 13.635 24.5738H8.78773C7.56767 24.5738 7.46875 24.474 7.46875 23.2432V21.8129C7.46875 21.1975 7.41928 21.1476 6.80926 21.1476H5.04511C3.82505 21.1476 3.72613 21.0478 3.72613 19.817V12.183C3.72613 10.9522 3.82505 10.8524 5.04511 10.8524H6.80926C7.41928 10.8524 7.46875 10.8025 7.46875 10.1871V8.75675C7.46875 7.52598 7.56767 7.42619 8.78773 7.42619H17.3776C18.5977 7.42619 18.6966 7.52598 18.6966 8.75675V10.1871C18.6966 10.8025 18.7461 10.8524 19.3561 10.8524H21.1202C22.3403 10.8524 22.4392 10.9522 22.4392 12.183V16.3909Z" fill="#B0FFDF"/>
<mask id="mask1_316_942" style="mask-type:alpha" maskUnits="userSpaceOnUse" x="0" y="3" width="27" height="26">
<rect y="3" width="32" height="32" fill="white"/>
</mask>
<g mask="url(#mask1_316_942)">
<rect y="3" width="32" height="32" fill="url(#paint0_linear_316_942)"/>
</g>
</g>
<defs>
<linearGradient id="paint0_linear_316_942" x1="0" y1="3" x2="32" y2="32" gradientUnits="userSpaceOnUse">
<stop stop-color="#DFFF61"/>
<stop offset="0.25" stop-color="#88E99D"/>
<stop offset="0.5" stop-color="#7FDADA"/>
<stop offset="0.65" stop-color="#26D2D2"/>
<stop offset="1" stop-color="#DFFF61"/>
</linearGradient>
</defs>
</svg>
